<?xml version="1.0" standalone="no"?>
<!DOCTYPE svg PUBLIC "-//W3C//DTD SVG 20010904//EN"
 "http://www.w3.org/TR/2001/REC-SVG-20010904/DTD/svg10.dtd">
<svg version="1.0" xmlns="http://www.w3.org/2000/svg"
 width="157.000000pt" height="157.000000pt" viewBox="0 0 157.000000 157.000000"
 preserveAspectRatio="xMidYMid meet">
<metadata>
Created by potrace 1.11, written by Peter Selinger 2001-2013
</metadata>
<g transform="translate(0.000000,157.000000) scale(0.100000,-0.100000)"
fill="#000000" stroke="none">
<path d="M683 1256 c-198 -65 -294 -295 -201 -481 11 -22 84 -104 161 -183
l141 -142 143 142 c170 170 197 215 197 338 0 61 -6 87 -29 137 -32 73 -103
144 -173 175 -59 27 -179 34 -239 14z m168 -172 c62 -25 99 -82 99 -153 0 -36
-6 -66 -16 -81 -26 -39 -137 -150 -150 -150 -6 0 -43 33 -82 74 -76 80 -89
112 -79 186 7 53 41 98 91 121 51 23 84 24 137 3z"/>
<path d="M110 395 l-115 -115 790 0 790 0 -115 115 -115 115 -183 0 -184 0
-82 -50 c-46 -27 -90 -52 -100 -56 -10 -4 -50 14 -110 50 l-94 56 -184 0 -183
0 -115 -115z"/>
</g>
</svg>
